<svg xmlns="http://www.w3.org/2000/svg"
      width="500"
      height="500"
      viewBox="0 0 500 500"
      version="1.1">
  <rect width="100%" height="100%" fill="transparent" />
  <g transform="translate(0,500) scale(0.1,-0.1)" fill="#e99d53" stroke="none">
    <path d="M3227 3455 c-9 -66 4 -175 29 -233 8 -19 13 -36 12 -37 -7 -5 -184     21 -197 29 -10 6 -12 5 -7 -2 9 -15 65 -30 139 -37 71 -8 119 -45 153 -120 13     -27 22 -50 21 -52 -2 -1 -21 4 -42 12 -22 8 -51 14 -64 15 -13 0 -45 13 -70     29 -25 16 -76 42 -114 56 -55 22 -68 32 -73 54 -10 44 -12 47 -13 14 -1 -31     -2 -32 -28 -22 -16 6 -44 22 -63 36 -34 26 -34 26 -13 2 24 -26 53 -42 208     -115 95 -45 98 -48 70 -54 -47 -12 -126 -11 -170 1 -48 13 -86 46 -131 117     -19 28 -36 52 -38 52 -2 0 10 -26 27 -57 26 -48 28 -55 11 -49 -10 5 -42 16     -69 26 -81 28 -133 58 -176 101 -22 22 -36 32 -30 21 14 -25 77 -81 109 -95     25 -11 22 -13 -43 -24 -55 -10 -59 -11 -21 -9 90 7 162 -10 267 -62 l99 -50     -109 -16 c-119 -19 -159 -14 -216 24 -16 11 -37 20 -45 20 -8 0 3 -9 25 -21     22 -11 47 -27 55 -35 26 -25 -170 -17 -265 10 -11 4 -4 -2 15 -11 55 -28 330     -25 520 6 261 43 358 31 379 -45 9 -34 3 -102 -14 -146 -6 -15 -1 -18 34 -18     l40 0 -5 78 c-7 81 6 150 31 175 7 8 42 20 76 26 48 10 70 20 96 46 18 18 33     38 33 45 0 6 -11 -2 -25 -19 -14 -16 -40 -34 -58 -39 -42 -13 -97 -23 -97 -17     0 2 14 26 30 52 32 50 60 131 59 167 0 16 -49 -105 -49 -123 0 -2 -13 14 -28     35 -16 21 -37 46 -47 54 -17 14 -17 14 -7 -6 6 -11 17 -26 25 -33 8 -6 20 -25     27 -42 12 -28 10 -34 -34 -99 -25 -38 -46 -75 -47 -82 0 -7 -7 9 -16 36 -8 28     -28 69 -44 93 -69 100 -68 135 6 214 47 51 66 86 64 122 -1 14 -5 8 -11 -16     -7 -25 -31 -60 -69 -99 -33 -33 -59 -67 -59 -75 0 -8 -4 -12 -9 -9 -12 8 -31     122 -34 201 l-2 60 -8 -60z" />
    <path d="M1506 2924 c-12 -32 -6 -44 23 -44 28 0 41 14 41 46 0 20 -56 18 -64     -2z" />
    <path d="M2420 2914 c0 -8 5 -12 10 -9 6 3 10 10 10 16 0 5 -4 9 -10 9 -5 0     -10 -7 -10 -16z" />
    <path d="M1390 2900 c0 -5 5 -10 10 -10 6 0 10 5 10 10 0 6 -4 10 -10 10 -5     0 -10 -4 -10 -10z" />
    <path d="M2855 2900 c-3 -5 -1 -10 4 -10 6 0 11 5 11 10 0 6 -2 10 -4 10 -3     0 -8 -4 -11 -10z" />
    <path d="M2422 2865 c-11 -24 -10 -25 22 -25 25 0 35 6 44 25 11 24 10 25 -22     25 -25 0 -35 -6 -44 -25z" />
    <path d="M1440 2855 c0 -20 5 -25 25 -25 20 0 25 5 25 25 0 20 -5 25 -25 25     -20 0 -25 -5 -25 -25z" />
    <path d="M2870 2855 c0 -18 5 -25 20 -25 15 0 20 7 20 25 0 18 -5 25 -20 25     -15 0 -20 -7 -20 -25z" />
    <path d="M1570 2850 c0 -13 7 -20 20 -20 13 0 20 7 20 20 0 13 -7 20 -20 20     -13 0 -20 -7 -20 -20z" />
    <path d="M2076 2854 c-9 -23 -8 -24 14 -24 10 0 24 9 30 20 9 17 8 20 -14 20     -13 0 -27 -7 -30 -16z" />
    <path d="M2649 2858 c-3 -27 -4 -34 -18 -65 -15 -36 -26 -41 -35 -17 -9 23 -8     24 14 24 13 0 20 7 20 20 0 17 -7 20 -46 20 -27 0 -43 4 -39 10 3 6 -5 10 -18     10 -14 0 -27 -7 -31 -15 -3 -8 -12 -15 -20 -15 -13 0 -46 -47 -46 -65 0 -11     79 -4 84 8 5 10 7 10 12 0 3 -7 14 -13 25 -13 10 0 19 -4 19 -10 0 -6 -31 -10     -74 -10 l-73 0 -7 -31 c-9 -44 -8 -46 13 -52 16 -4 17 -11 11 -63 -5 -33 -10     -78 -13 -101 l-5 -43 138 0 c135 0 139 1 142 22 2 14 12 24 28 28 16 4 26 14     28 28 3 22 1 22 -112 22 -155 0 -162 19 -9 22 l118 3 5 40 c4 32 9 41 28 43     13 2 22 10 22 20 0 9 3 27 6 40 6 21 4 22 -70 22 -44 0 -76 4 -76 10 0 6 6 10     14 10 8 0 17 6 20 13 5 10 7 10 12 0 3 -7 21 -13 41 -13 30 0 34 3 28 20 -5     16 -2 20 19 20 19 0 26 5 26 20 0 17 -7 20 -44 20 -24 0 -46 4 -48 9 -1 5 -22     12 -45 16 -33 5 -43 3 -44 -7z m71 -178 c0 -6 -43 -10 -110 -10 -67 0 -110 4     -110 10 0 6 43 10 110 10 67 0 110 -4 110 -10z m-50 -60 c0 -6 -30 -10 -70     -10 -40 0 -70 4 -70 10 0 6 30 10 70 10 40 0 70 -4 70 -10z m-5 -120 c-3 -5     -37 -10 -76 -10 -39 0 -69 4 -69 10 0 6 32 10 76 10 47 0 73 -4 69 -10z" />
    <path d="M1620 2840 c0 -14 -7 -20 -23 -20 -22 0 -24 -7 -50 -177 -15 -98 -27     -181 -27 -185 0 -5 17 -8 39 -8 l38 0 17 113 c10 61 20 122 23 135 5 22 8 22     154 22 l149 0 0 25 0 25 -145 0 c-138 0 -145 1 -145 20 0 19 7 20 145 20 l145     0 0 25 0 25 -160 0 c-153 0 -160 -1 -160 -20z" />
    <path d="M2130 2840 c-6 -12 -21 -20 -35 -20 -19 0 -30 -10 -50 -50 -14 -27     -25 -56 -25 -63 0 -11 34 -15 173 -19 94 -3 173 -5 174 -4 2 2 -5 37 -14 79     l-17 77 -39 0 c-30 0 -38 -3 -34 -14 3 -8 9 -31 13 -50 l6 -36 -76 0 c-42 0     -76 2 -76 5 0 3 14 30 31 60 l31 55 -26 0 c-15 0 -30 -8 -36 -20z" />
    <path d="M2923 2840 c-3 -12 -14 -20 -27 -21 -17 -1 -17 -2 -3 -6 27 -7 20     -103 -8 -103 -7 0 -15 -13 -17 -30 -3 -20 0 -30 9 -30 8 0 13 -13 13 -39 0     -57 -11 -101 -25 -101 -11 0 -24 -28 -25 -52 0 -3 24 0 53 8 67 18 87 18 87     -1 0 -12 19 -15 110 -15 103 0 110 1 110 20 0 13 7 20 20 20 11 0 20 5 20 10     0 6 -21 10 -46 10 -38 0 -45 3 -42 18 2 12 15 18 46 20 37 3 42 6 42 28 0 21     -4 24 -40 24 -33 0 -40 3 -40 20 0 17 7 20 44 20 50 0 50 -1 62 143 l7 78     -119 -3 -119 -3 -7 -65 c-4 -36 -9 -84 -12 -107 l-6 -43 40 0 c33 0 40 -3 40     -19 0 -16 -8 -20 -42 -23 -36 -2 -44 -7 -46 -25 -3 -21 1 -23 37 -23 34 0 41     -3 41 -20 0 -17 -7 -20 -45 -20 -33 0 -45 4 -45 15 0 8 -7 15 -15 15 -16 0     -18 15 -9 73 4 22 12 37 20 37 9 0 14 11 14 30 0 17 -4 30 -10 30 -11 0 -14     59 -4 84 3 9 12 16 20 16 8 0 14 10 14 25 0 23 -4 25 -46 25 -37 0 -47 -4 -51     -20z m187 -45 c0 -8 -7 -15 -15 -15 -8 0 -15 7 -15 15 0 8 7 15 15 15 8 0 15     -7 15 -15z m100 0 c0 -8 -7 -15 -15 -15 -8 0 -15 7 -15 15 0 8 7 15 15 15 8 0     15 -7 15 -15z m-110 -85 c0 -11 -7 -20 -15 -20 -15 0 -21 21 -8 33 12 13 23 7     23 -13z m100 0 c0 -11 -7 -20 -15 -20 -15 0 -21 21 -8 33 12 13 23 7 23 -13z" />
    <path d="M1410 2810 c0 -5 5 -10 10 -10 6 0 10 5 10 10 0 6 -4 10 -10 10 -5     0 -10 -4 -10 -10z" />
    <path d="M1490 2800 c0 -5 5 -10 10 -10 6 0 10 5 10 10 0 6 -4 10 -10 10 -5     0 -10 -4 -10 -10z" />
    <path d="M1510 2755 c0 -8 7 -15 15 -15 8 0 15 7 15 15 0 8 -7 15 -15 15 -8     0 -15 -7 -15 -15z" />
    <path d="M3348 2705 c-3 -14 -1 -25 3 -25 5 0 9 11 9 25 0 14 -2 25 -4 25 -2     0 -6 -11 -8 -25z" />
    <path d="M3381 2708 c-1 -20 4 -26 17 -25 10 0 18 9 18 20 0 17 -1 17 -12 2     -11 -15 -13 -14 -17 7 -4 21 -4 21 -6 -4z" />
    <path d="M3432 2700 c0 -14 2 -19 5 -12 2 6 2 18 0 25 -3 6 -5 1 -5 -13z" />
    <path d="M3457 2700 c3 -11 7 -20 9 -20 2 0 4 9 4 20 0 11 -4 20 -9 20 -5 0     -7 -9 -4 -20z" />
    <path d="M3482 2700 c0 -14 2 -19 5 -12 2 6 2 18 0 25 -3 6 -5 1 -5 -13z" />
    <path d="M1667 2643 c-3 -21 -9 -73 -13 -115 l-7 -78 101 0 101 0 3 27 c2 19     10 29 28 33 21 5 26 13 32 55 3 28 7 65 7 83 l1 32 -124 0 -123 0 -6 -37z     m176 -60 c-7 -73 -7 -73 -69 -73 -54 0 -56 1 -50 23 3 12 6 39 6 60 l0 37 59     0 59 0 -5 -47z" />
    <path d="M1456 2645 c-4 -10 1 -15 14 -15 11 0 20 7 20 15 0 8 -6 15 -14 15     -8 0 -16 -7 -20 -15z" />
    <path d="M2006 2583 c-4 -38 -10 -83 -13 -100 l-5 -33 150 0 150 0 6 30 c4 23     11 30 29 30 21 0 25 6 31 46 3 26 6 57 6 70 l0 24 -174 0 -174 0 -6 -67z m260     -14 c-3 -17 -6 -38 -6 -45 0 -11 -20 -14 -88 -14 l-87 0 3 45 4 45 90 0 91 0     -7 -31z" />
    <path d="M3360 2625 c0 -14 4 -25 9 -25 4 0 6 11 3 25 -2 14 -6 25 -8 25 -2     0 -4 -11 -4 -25z" />
    <path d="M3411 2623 c12 -15 12 -16 -4 -10 -11 4 -16 3 -12 -3 3 -6 17 -10 31     -10 18 0 24 5 23 23 0 20 -1 20 -8 3 -7 -18 -8 -18 -14 -3 -3 9 -12 17 -18 17     -8 0 -7 -5 2 -17z" />
    <path d="M3350 2551 c0 -11 4 -22 9 -25 4 -3 6 6 3 19 -5 30 -12 33 -12 6z" />
    <path d="M3393 2553 c-7 -2 -13 -12 -13 -21 1 -14 2 -14 12 3 11 19 11 19 19     0 7 -19 8 -18 8 3 1 22 -3 25 -26 15z" />
    <path d="M3432 2540 c0 -14 2 -19 5 -12 2 6 2 18 0 25 -3 6 -5 1 -5 -13z" />
    <path d="M3471 2543 c12 -15 12 -16 -4 -10 -11 4 -16 3 -12 -3 3 -6 17 -10 31     -10 18 0 24 5 23 23 0 20 -1 20 -8 3 -7 -18 -8 -18 -14 -3 -3 9 -12 17 -18 17     -8 0 -7 -5 2 -17z" />
    <path d="M3522 2540 c0 -14 2 -19 5 -12 2 6 2 18 0 25 -3 6 -5 1 -5 -13z" />
    <path d="M1867 2493 c-4 -3 -7 -15 -7 -25 0 -13 7 -18 25 -18 20 0 25 5 25 25     0 18 -5 25 -18 25 -10 0 -22 -3 -25 -7z" />
    <path d="M2306 2484 c-10 -27 -7 -34 19 -34 14 0 25 4 25 9 0 5 3 16 6 25 5     12 0 16 -19 16 -14 0 -28 -7 -31 -16z" />
    <path d="M2717 2483 c-4 -3 -7 -15 -7 -25 0 -12 7 -18 24 -18 13 0 26 -6 29     -12 2 -7 8 -9 13 -5 5 4 2 12 -5 17 -8 4 -12 17 -8 29 4 17 1 21 -17 21 -13     0 -26 -3 -29 -7z" />
    <path d="M3352 2465 c0 -16 2 -22 5 -12 2 9 2 23 0 30 -3 6 -5 -1 -5 -18z" />
    <path d="M3210 2455 c0 -20 5 -25 25 -25 14 0 25 -4 25 -10 0 -5 7 -10 15 -10     8 0 15 5 15 10 0 6 -7 10 -16 10 -12 0 -15 7 -12 25 5 22 2 25 -23 25 -24 0     -29 -4 -29 -25z" />
    <path d="M3400 2466 c0 -8 -8 -17 -17 -19 -14 -4 -12 -5 5 -6 16 -1 22 5 22     19 0 11 -2 20 -5 20 -3 0 -5 -6 -5 -14z" />
    <path d="M1910 2430 c0 -5 5 -10 10 -10 6 0 10 5 10 10 0 6 -4 10 -10 10 -5     0 -10 -4 -10 -10z" />
    <path d="M2350 2430 c0 -5 4 -10 9 -10 6 0 13 5 16 10 3 6 -1 10 -9 10 -9 0     -16 -4 -16 -10z" />
    <path d="M1510 2385 c0 -16 6 -25 15 -25 11 0 15 -12 15 -50 l0 -50 75 0 c74     0 81 3 69 34 -7 18 -64 23 -64 6 0 -5 -9 -10 -20 -10 -24 0 -24 0 -3 45 11 22     24 35 36 35 13 0 17 -5 13 -15 -4 -10 1 -15 14 -15 13 0 20 7 20 20 0 18 -7     20 -65 20 -51 0 -65 3 -65 15 0 8 -9 15 -20 15 -15 0 -20 -7 -20 -25z" />
    <path d="M1470 2330 c0 -5 7 -10 15 -10 8 0 15 5 15 10 0 6 -7 10 -15 10 -8     0 -15 -4 -15 -10z" />
  </g>
</svg>