<?xml version="1.0" ?><svg height="32" id="svg4152" version="1.1" viewBox="0 0 32 32" width="32" xmlns="http://www.w3.org/2000/svg" xmlns:cc="http://creativecommons.org/ns#" xmlns:dc="http://purl.org/dc/elements/1.1/" xmlns:inkscape="http://www.inkscape.org/namespaces/inkscape" xmlns:rdf="http://www.w3.org/1999/02/22-rdf-syntax-ns#" xmlns:sodipodi="http://sodipodi.sourceforge.net/DTD/sodipodi-0.dtd" xmlns:svg="http://www.w3.org/2000/svg"><defs id="defs4154"/><g id="layer1"><g id="g5050" transform="matrix(0.935314,0,0,0.935314,-36.292639,1.0349762)"><path d="m 51.697266,7.3769531 -0.800782,2.8359379 a 8.9570869,8.9570869 0 0 0 -3.789062,2.199218 l -2.867188,-0.728515 -1.636718,2.833984 2.068359,2.148438 a 8.9570869,8.9570869 0 0 0 -0.271484,2.15039 8.9570869,8.9570869 0 0 0 0.289062,2.210938 l -2.085937,2.142578 1.636718,2.832031 2.919922,-0.722656 a 8.9570869,8.9570869 0 0 0 3.710938,2.138672 l 0.826172,2.93164 3.271484,0 0.845703,-2.927734 a 8.9570869,8.9570869 0 0 0 3.736328,-2.150391 l 2.947266,0.730469 1.636719,-2.832031 -2.101563,-2.158203 a 8.9570869,8.9570869 0 0 0 0.28125,-2.195313 8.9570869,8.9570869 0 0 0 -0.269531,-2.128906 l 2.089844,-2.169922 -1.636719,-2.833984 -2.878906,0.730468 a 8.9570869,8.9570869 0 0 0 -3.835938,-2.21875 l -0.814453,-2.8183589 -3.271484,0 z M 51.125,14.998047 l 4.488281,0 2.21875,3.845703 -2.242187,3.884766 -4.441406,0 L 48.904297,18.84375 51.125,14.998047 Z" id="path5085" style="opacity:1;fill:none;fill-opacity:1;stroke:#0e6ea1;stroke-width:1;stroke-linecap:round;stroke-linejoin:round;stroke-miterlimit:4;stroke-dasharray:none;stroke-opacity:1"/><path d="m 63.882812,1.6503906 -0.34375,1.2148438 a 3.8403193,3.8403193 0 0 0 -1.625,0.9433594 l -1.230468,-0.3125 -0.701172,1.2148437 0.886719,0.9199219 a 3.8403193,3.8403193 0 0 0 -0.115235,0.9238281 3.8403193,3.8403193 0 0 0 0.123047,0.9492187 l -0.894531,0.9179688 0.701172,1.2148438 1.251953,-0.3105469 a 3.8403193,3.8403193 0 0 0 1.591797,0.9160161 L 63.882812,11.5 l 1.402344,0 0.361328,-1.255859 A 3.8403193,3.8403193 0 0 0 67.248047,9.3222656 L 68.513672,9.6367188 69.214844,8.421875 68.3125,7.4941406 A 3.8403193,3.8403193 0 0 0 68.433594,6.5546875 3.8403193,3.8403193 0 0 0 68.318359,5.640625 L 69.214844,4.7109375 68.513672,3.4960938 67.277344,3.8105469 a 3.8403193,3.8403193 0 0 0 -1.644532,-0.953125 l -0.347656,-1.2070313 -1.402344,0 z m -0.246093,3.2675782 1.923828,0 0.951172,1.6484374 -0.960938,1.6660157 -1.904297,0 -0.960937,-1.6660157 0.951172,-1.6484374 z" id="path5101" style="opacity:1;fill:none;fill-opacity:1;stroke:#0e6ea1;stroke-width:1;stroke-linecap:round;stroke-linejoin:round;stroke-miterlimit:4;stroke-dasharray:none;stroke-opacity:1"/></g></g></svg>